<svg width="94" height="19" viewBox="0 0 94 19" fill="none" xmlns="http://www.w3.org/2000/svg">
<path d="M0.175 18V0.499999H8.325C10.3583 0.499999 11.9417 0.891665 13.075 1.675C14.2083 2.45833 14.775 3.575 14.775 5.025C14.775 6.45833 14.2417 7.575 13.175 8.375C12.1083 9.15833 10.6917 9.55 8.925 9.55L9.4 8.5C11.3667 8.5 12.8917 8.89167 13.975 9.675C15.0583 10.4583 15.6 11.5917 15.6 13.075C15.6 14.6083 15.0167 15.8167 13.85 16.7C12.7 17.5667 11.0167 18 8.8 18H0.175ZM4.2 15H8.65C9.58333 15 10.2917 14.8167 10.775 14.45C11.2583 14.0833 11.5 13.5167 11.5 12.75C11.5 12.0167 11.2583 11.475 10.775 11.125C10.2917 10.7583 9.58333 10.575 8.65 10.575H4.2V15ZM4.2 7.75H7.975C8.85833 7.75 9.525 7.575 9.975 7.225C10.425 6.85833 10.65 6.325 10.65 5.625C10.65 4.925 10.425 4.4 9.975 4.05C9.525 3.68333 8.85833 3.5 7.975 3.5H4.2V7.75ZM26.9779 18V13.525L27.5279 14.15H23.8029C21.8696 14.15 20.3529 13.75 19.2529 12.95C18.1529 12.15 17.6029 11 17.6029 9.5C17.6029 7.9 18.1779 6.675 19.3279 5.825C20.4946 4.975 22.0613 4.55 24.0279 4.55H30.4529V18H26.9779ZM17.4029 18L20.9779 12.875H24.9529L21.5529 18H17.4029ZM26.9779 12.325V6.725L27.5279 7.725H24.1029C23.3029 7.725 22.6779 7.875 22.2279 8.175C21.7946 8.475 21.5779 8.95833 21.5779 9.625C21.5779 10.9083 22.4029 11.55 24.0529 11.55H27.5279L26.9779 12.325ZM38.6291 18.25C39.8958 18.25 41.0291 18.0833 42.0291 17.75C43.0458 17.4 43.8458 16.9083 44.4291 16.275C45.0291 15.625 45.3291 14.8667 45.3291 14C45.3291 12.9833 44.9041 12.1833 44.0541 11.6C43.2041 11 42.0374 10.7 40.5541 10.7L40.4541 11.475C41.3041 11.475 42.0708 11.3333 42.7541 11.05C43.4374 10.75 43.9708 10.3417 44.3541 9.825C44.7541 9.30833 44.9541 8.725 44.9541 8.075C44.9541 7.25833 44.6624 6.56667 44.0791 6C43.5124 5.43333 42.7291 5 41.7291 4.7C40.7291 4.4 39.6041 4.26667 38.3541 4.3C37.5041 4.31667 36.6458 4.43333 35.7791 4.65C34.9124 4.86667 34.0374 5.15833 33.1541 5.525L34.1041 8.225C34.8541 7.925 35.5874 7.7 36.3041 7.55C37.0208 7.38333 37.7124 7.3 38.3791 7.3C38.9624 7.3 39.4458 7.35833 39.8291 7.475C40.2124 7.575 40.5041 7.725 40.7041 7.925C40.9041 8.125 41.0041 8.36667 41.0041 8.65C41.0041 8.91667 40.9208 9.15 40.7541 9.35C40.6041 9.53333 40.3708 9.675 40.0541 9.775C39.7374 9.875 39.3541 9.925 38.9041 9.925H36.4791V12.35H39.2291C39.9291 12.35 40.4624 12.4667 40.8291 12.7C41.1958 12.9167 41.3791 13.2417 41.3791 13.675C41.3791 14.0083 41.2624 14.2917 41.0291 14.525C40.7958 14.7583 40.4541 14.9417 40.0041 15.075C39.5708 15.1917 39.0541 15.25 38.4541 15.25C37.6208 15.25 36.7958 15.1667 35.9791 15C35.1791 14.8167 34.4374 14.5583 33.7541 14.225L32.7041 16.95C33.5708 17.3833 34.5124 17.7083 35.5291 17.925C36.5624 18.1417 37.5958 18.25 38.6291 18.25ZM56.1672 18V15.375L55.9172 14.8V10.1C55.9172 9.26667 55.6589 8.61667 55.1422 8.15C54.6422 7.68333 53.8672 7.45 52.8172 7.45C52.1005 7.45 51.3922 7.56667 50.6922 7.8C50.0089 8.01667 49.4255 8.31667 48.9422 8.7L47.5422 5.975C48.2755 5.45833 49.1589 5.05833 50.1922 4.775C51.2255 4.49167 52.2755 4.35 53.3422 4.35C55.3922 4.35 56.9839 4.83333 58.1172 5.8C59.2505 6.76667 59.8172 8.275 59.8172 10.325V18H56.1672ZM52.0672 18.2C51.0172 18.2 50.1172 18.025 49.3672 17.675C48.6172 17.3083 48.0422 16.8167 47.6422 16.2C47.2422 15.5833 47.0422 14.8917 47.0422 14.125C47.0422 13.325 47.2339 12.625 47.6172 12.025C48.0172 11.425 48.6422 10.9583 49.4922 10.625C50.3422 10.275 51.4505 10.1 52.8172 10.1H56.3922V12.375H53.2422C52.3255 12.375 51.6922 12.525 51.3422 12.825C51.0089 13.125 50.8422 13.5 50.8422 13.95C50.8422 14.45 51.0339 14.85 51.4172 15.15C51.8172 15.4333 52.3589 15.575 53.0422 15.575C53.6922 15.575 54.2755 15.425 54.7922 15.125C55.3089 14.8083 55.6839 14.35 55.9172 13.75L56.5172 15.55C56.2339 16.4167 55.7172 17.075 54.9672 17.525C54.2172 17.975 53.2505 18.2 52.0672 18.2ZM63.2051 18V4.55H67.0801V9.8H72.9301V4.55H76.8301V18H72.9301V12.975H67.0801V18H63.2051ZM87.8385 8.85C89.6051 8.86667 90.9468 9.26667 91.8635 10.05C92.7968 10.8167 93.2635 11.9083 93.2635 13.325C93.2635 14.8083 92.7385 15.9667 91.6885 16.8C90.6385 17.6167 89.1801 18.025 87.3135 18.025L80.5635 18V4.55H84.4385V8.85H87.8385ZM86.9635 15.25C87.7135 15.2667 88.2885 15.1083 88.6885 14.775C89.0885 14.4417 89.2885 13.9417 89.2885 13.275C89.2885 12.6083 89.0885 12.1333 88.6885 11.85C88.2885 11.55 87.7135 11.3917 86.9635 11.375L84.4385 11.35V15.25H86.9635Z" fill="white"/>
</svg>
