<svg width="100" height="85" viewBox="0 0 100 85" fill="none" xmlns="http://www.w3.org/2000/svg">
<path fill-rule="evenodd" clip-rule="evenodd" d="M87.3101 37.87L80.1801 40.39L78.0001 34.83L85.0801 32.25C85.1401 25.11 95.9601 22.25 98.9901 30C102.02 37.75 92.0001 42.66 87.3101 37.87ZM80.7901 14.58C70.7901 14.13 71.8601 -0.179977 81.2701 0.240023C90.6801 0.660023 90.0001 15 80.7901 14.58ZM48.2401 42.83C38.9798 39.7365 30.3277 35.0568 22.6701 29C24.1919 27.5359 25.8684 26.2416 27.6701 25.14C33.5087 29.736 39.9827 33.4614 46.8901 36.2L50.3201 33C43.8946 30.4253 37.8413 27.0052 32.3201 22.83C36.4615 21.2131 40.8745 20.4052 45.3201 20.45C50.4553 20.3659 55.5395 21.4786 60.1701 23.7L70.7501 13.7L74.6101 17.7L48.2401 42.83ZM44.3701 46.52L40.1901 50.52C31.6676 47.4198 23.747 42.8657 16.7801 37.06C17.6921 35.2759 18.7702 33.5818 20.0001 32C27.3377 38.0512 35.5556 42.9475 44.3701 46.52ZM75.6501 61.62C75.1673 63.4455 74.5352 65.2282 73.7601 66.95C55.7101 66.2 30.7601 60.42 13.5601 46.59C13.9094 44.6223 14.428 42.6885 15.1101 40.81C32.2701 54.91 56.4201 60.93 75.6501 61.62ZM13.0001 51.17C18.1186 54.9386 23.6308 58.1407 29.4401 60.72L18.4401 71.16C16.834 68.8213 15.5618 66.2701 14.6601 63.58L0.100098 68.77L0.790098 63L13.4401 58.38C13.0436 55.9985 12.8962 53.5821 13.0001 51.17ZM15.0001 74.53L3.6001 84.92L2.6001 78.55L11.6001 70.34L15.0001 74.53ZM39.7001 64.69L25.3101 78.17C23.9253 77.1607 22.6365 76.0259 21.4601 74.78L34.0901 62.67C35.9301 63.39 37.7901 64.07 39.6501 64.69H39.7001ZM51.3201 68L36.0001 83.12C33.9607 82.6031 31.975 81.8932 30.0701 81L45.0001 66.35C47.1201 66.9434 49.2268 67.4934 51.3201 68ZM71.6701 70.92C66.6701 78.79 58.1501 84.39 46.0201 84.39C44.3491 84.3855 42.6797 84.2854 41.0201 84.09L56.4001 69C61.4459 69.9444 66.5459 70.5723 71.6701 70.88V70.92ZM76.4401 57.67C73.9201 57.59 71.2801 57.41 68.5501 57.13L76.6501 49.19C76.9024 52.0022 76.8319 54.8339 76.4401 57.63V57.67ZM45.0001 52.19L68.3401 29.84C69.655 31.25 70.8304 32.7838 71.8501 34.42L51.0701 54C49.0234 53.4467 47.0001 52.8434 45.0001 52.19ZM75.7401 43.86L63.0501 56.39C60.8601 56.06 58.6301 55.67 56.3801 55.2L73.8001 38.12C74.6242 39.9707 75.2802 41.8918 75.7601 43.86H75.7401Z" fill="black"/>
</svg>
