<?xml version="1.0" encoding="UTF-8"?>
<!-- Generated by Pixelmator Pro 3.2.3 -->
<svg width="102" height="92" viewBox="0 0 102 92" xmlns="http://www.w3.org/2000/svg" xmlns:xlink="http://www.w3.org/1999/xlink">
    <path id="Path" fill="#ffffff" fill-rule="evenodd" stroke="none" d="M 89.309998 40.870003 L 82.18 43.389999 L 80 37.830002 L 87.080002 35.25 C 87.139999 28.110001 97.959999 25.25 100.990005 33 C 104.020004 40.75 94 45.660004 89.309998 40.870003 Z M 82.790001 17.580002 C 72.790001 17.129997 73.860001 2.82 83.269997 3.239998 C 92.68 3.660004 92 18 82.790001 17.580002 Z M 50.239998 45.830002 C 40.979706 42.73642 32.327599 38.05677 24.669998 32 C 26.191772 30.535843 27.868301 29.241562 29.669998 28.139999 C 35.508606 32.735992 41.982582 36.461395 48.889999 39.199997 L 52.32 36 C 45.894547 33.425316 39.841179 30.005165 34.32 25.830002 C 38.461388 24.213081 42.874382 23.405159 47.32 23.449997 C 52.455177 23.365868 57.539406 24.478577 62.169998 26.699997 L 72.75 16.699997 L 76.610001 20.699997 Z M 46.370003 49.519997 L 42.190002 53.519997 C 33.6675 50.4198 25.746914 45.865715 18.779999 40.059998 C 19.69199 38.275925 20.770088 36.581764 22 35 C 29.337646 41.051178 37.555519 45.947502 46.370003 49.519997 Z M 77.650002 64.620003 C 77.167183 66.445473 76.535049 68.228149 75.760002 69.949997 C 57.709999 69.199997 32.759998 63.419998 15.560001 49.589996 C 15.90926 47.622292 16.427856 45.688438 17.110001 43.809998 C 34.27 57.910004 58.419998 63.93 77.650002 64.620003 Z M 15 54.169998 C 20.118465 57.938568 25.630726 61.14064 31.439999 63.720001 L 20.439999 74.160004 C 18.83392 71.821243 17.56168 69.270035 16.66 66.580002 L 2.1 71.770004 L 2.790001 66 L 15.439999 61.379997 C 15.043552 58.998444 14.896091 56.582092 15 54.169998 Z M 17 77.529999 L 5.599998 87.919998 L 4.599998 81.550003 L 13.599998 73.339996 Z M 41.699997 67.690002 L 27.310001 81.169998 C 25.925217 80.160721 24.636429 79.025909 23.459999 77.779999 L 36.089996 65.669998 C 37.93 66.389999 39.790001 67.070007 41.650002 67.690002 Z M 53.32 71 L 38 86.119995 C 35.960556 85.603058 33.974937 84.893188 32.07 84 L 47 69.350006 C 49.12 69.943339 51.226667 70.493337 53.32 71 Z M 73.669998 73.919998 C 68.669998 81.789993 60.150002 87.389999 48.019997 87.389999 C 46.348976 87.385529 44.679573 87.285355 43.019997 87.089996 L 58.400002 72 C 63.445839 72.944336 68.545792 73.572235 73.669998 73.880005 Z M 78.440002 60.669998 C 75.919998 60.589996 73.279999 60.410004 70.550003 60.129997 L 78.650002 52.190002 C 78.902252 55.002129 78.831795 57.833893 78.440002 60.629997 Z M 47 55.190002 L 70.339996 32.839996 C 71.654877 34.249977 72.830345 35.783775 73.849998 37.419998 L 53.07 57 C 51.023333 56.446665 49 55.843333 47 55.190002 Z M 77.739998 46.860001 L 65.050003 59.389999 C 62.860001 59.059998 60.629997 58.669998 58.379997 58.199997 L 75.800003 41.120003 C 76.624138 42.970688 77.280113 44.891762 77.760002 46.860001 Z"/>
</svg>
