<svg id="Слой_1" data-name="Слой 1" xmlns="http://www.w3.org/2000/svg" viewBox="0 0 150 190"><defs><style>.cls-1{fill-rule:evenodd;}</style></defs><title>Монтажная область 77</title><path class="cls-1" d="M118.31,101.87l-7.13,2.52L109,98.83l7.08-2.58c.06-7.14,10.88-10,13.91-2.25S123,106.66,118.31,101.87Zm-6.52-23.29c-10-.45-8.93-14.76.48-14.34S121,79,111.79,78.58ZM79.24,106.83A84.25,84.25,0,0,1,53.67,93a29.12,29.12,0,0,1,5-3.86A76.89,76.89,0,0,0,77.89,100.2L81.32,97a77.85,77.85,0,0,1-18-10.17,34.78,34.78,0,0,1,13-2.38A33.08,33.08,0,0,1,91.17,87.7l10.58-10,3.86,4Zm-3.87,3.69-4.18,4a78.47,78.47,0,0,1-23.41-13.46A31.89,31.89,0,0,1,51,96,93.51,93.51,0,0,0,75.37,110.52Zm31.28,15.1a34.44,34.44,0,0,1-1.89,5.33c-18.05-.75-43-6.53-60.2-20.36a34.7,34.7,0,0,1,1.55-5.78C63.27,118.91,87.42,124.93,106.65,125.62ZM44,115.17a87.87,87.87,0,0,0,16.44,9.55l-11,10.44a30.53,30.53,0,0,1-3.78-7.58L31.1,132.77l.69-5.77,12.65-4.62A34.79,34.79,0,0,1,44,115.17ZM46,138.53,34.6,148.92l-1-6.37,9-8.21Zm24.7-9.84L56.31,142.17a27.88,27.88,0,0,1-3.85-3.39l12.63-12.11C66.93,127.39,68.79,128.07,70.65,128.69ZM82.32,132,67,147.12A33.16,33.16,0,0,1,61.07,145L76,130.35Q79.18,131.24,82.32,132Zm20.35,2.92c-5,7.87-13.52,13.47-25.65,13.47a43.77,43.77,0,0,1-5-.3L87.4,133A123.14,123.14,0,0,0,102.67,134.88Zm4.77-13.25c-2.52-.08-5.16-.26-7.89-.54l8.1-7.94A37,37,0,0,1,107.44,121.63ZM76,116.19,99.34,93.84a29.91,29.91,0,0,1,3.51,4.58L82.07,118Q79,117.17,76,116.19Zm30.74-8.33L94.05,120.39c-2.19-.33-4.42-.72-6.67-1.19l17.42-17.08A33.78,33.78,0,0,1,106.76,107.86Z"/></svg>